<svg xmlns="http://www.w3.org/2000/svg" viewBox="0 0 600 600" width="600" height="600">
<defs>
  <radialGradient id="bggrad" cx="50%" cy="40%" r="60%">
    <stop offset="0%" stop-color="#1a1e35"/>
    <stop offset="100%" stop-color="#0c0e1c"/>
  </radialGradient>
</defs>

<rect width="600" height="600" fill="#0a0b14"/>
<circle cx="300" cy="300" r="280" fill="none" stroke="#f5a62318" stroke-width="12"/>

<path d="M 300.000 32.000 A 268 268 0 0 1 369.364 41.132 L 339.340 153.179 A 152 152 0 0 0 300.000 148.000 Z" fill="#fde047" stroke="rgba(0,0,0,0.4)" stroke-width="1.2"/><path d="M 369.364 41.132 A 268 268 0 0 1 434.000 67.905 L 376.000 168.364 A 152 152 0 0 0 339.340 153.179 Z" fill="#9ca3af" stroke="rgba(0,0,0,0.4)" stroke-width="1.2"/><path d="M 434.000 67.905 A 268 268 0 0 1 489.505 110.495 L 407.480 192.520 A 152 152 0 0 0 376.000 168.364 Z" fill="#ef4444" stroke="rgba(0,0,0,0.4)" stroke-width="1.2"/><path d="M 489.505 110.495 A 268 268 0 0 1 532.095 166.000 L 431.636 224.000 A 152 152 0 0 0 407.480 192.520 Z" fill="#f59e0b" stroke="rgba(0,0,0,0.4)" stroke-width="1.2"/><path d="M 532.095 166.000 A 268 268 0 0 1 558.868 230.636 L 446.821 260.660 A 152 152 0 0 0 431.636 224.000 Z" fill="#f472b6" stroke="rgba(0,0,0,0.4)" stroke-width="1.2"/><path d="M 558.868 230.636 A 268 268 0 0 1 568.000 300.000 L 452.000 300.000 A 152 152 0 0 0 446.821 260.660 Z" fill="#f59e0b" stroke="rgba(0,0,0,0.4)" stroke-width="1.2"/><path d="M 568.000 300.000 A 268 268 0 0 1 558.868 369.364 L 446.821 339.340 A 152 152 0 0 0 452.000 300.000 Z" fill="#9ca3af" stroke="rgba(0,0,0,0.4)" stroke-width="1.2"/><path d="M 558.868 369.364 A 268 268 0 0 1 532.095 434.000 L 431.636 376.000 A 152 152 0 0 0 446.821 339.340 Z" fill="#f59e0b" stroke="rgba(0,0,0,0.4)" stroke-width="1.2"/><path d="M 532.095 434.000 A 268 268 0 0 1 489.505 489.505 L 407.480 407.480 A 152 152 0 0 0 431.636 376.000 Z" fill="#ef4444" stroke="rgba(0,0,0,0.4)" stroke-width="1.2"/><path d="M 489.505 489.505 A 268 268 0 0 1 434.000 532.095 L 376.000 431.636 A 152 152 0 0 0 407.480 407.480 Z" fill="#f59e0b" stroke="rgba(0,0,0,0.4)" stroke-width="1.2"/><path d="M 434.000 532.095 A 268 268 0 0 1 369.364 558.868 L 339.340 446.821 A 152 152 0 0 0 376.000 431.636 Z" fill="#9ca3af" stroke="rgba(0,0,0,0.4)" stroke-width="1.2"/><path d="M 369.364 558.868 A 268 268 0 0 1 300.000 568.000 L 300.000 452.000 A 152 152 0 0 0 339.340 446.821 Z" fill="#f59e0b" stroke="rgba(0,0,0,0.4)" stroke-width="1.2"/><path d="M 300.000 568.000 A 268 268 0 0 1 230.636 558.868 L 260.660 446.821 A 152 152 0 0 0 300.000 452.000 Z" fill="#9ca3af" stroke="rgba(0,0,0,0.4)" stroke-width="1.2"/><path d="M 230.636 558.868 A 268 268 0 0 1 166.000 532.095 L 224.000 431.636 A 152 152 0 0 0 260.660 446.821 Z" fill="#f59e0b" stroke="rgba(0,0,0,0.4)" stroke-width="1.2"/><path d="M 166.000 532.095 A 268 268 0 0 1 110.495 489.505 L 192.520 407.480 A 152 152 0 0 0 224.000 431.636 Z" fill="#7c3aed" stroke="rgba(0,0,0,0.4)" stroke-width="1.2"/><path d="M 110.495 489.505 A 268 268 0 0 1 67.905 434.000 L 168.364 376.000 A 152 152 0 0 0 192.520 407.480 Z" fill="#ef4444" stroke="rgba(0,0,0,0.4)" stroke-width="1.2"/><path d="M 67.905 434.000 A 268 268 0 0 1 41.132 369.364 L 153.179 339.340 A 152 152 0 0 0 168.364 376.000 Z" fill="#f59e0b" stroke="rgba(0,0,0,0.4)" stroke-width="1.2"/><path d="M 41.132 369.364 A 268 268 0 0 1 32.000 300.000 L 148.000 300.000 A 152 152 0 0 0 153.179 339.340 Z" fill="#9ca3af" stroke="rgba(0,0,0,0.4)" stroke-width="1.2"/><path d="M 32.000 300.000 A 268 268 0 0 1 41.132 230.636 L 153.179 260.660 A 152 152 0 0 0 148.000 300.000 Z" fill="#ef4444" stroke="rgba(0,0,0,0.4)" stroke-width="1.2"/><path d="M 41.132 230.636 A 268 268 0 0 1 67.905 166.000 L 168.364 224.000 A 152 152 0 0 0 153.179 260.660 Z" fill="#f59e0b" stroke="rgba(0,0,0,0.4)" stroke-width="1.2"/><path d="M 67.905 166.000 A 268 268 0 0 1 110.495 110.495 L 192.520 192.520 A 152 152 0 0 0 168.364 224.000 Z" fill="#f472b6" stroke="rgba(0,0,0,0.4)" stroke-width="1.2"/><path d="M 110.495 110.495 A 268 268 0 0 1 166.000 67.905 L 224.000 168.364 A 152 152 0 0 0 192.520 192.520 Z" fill="#f59e0b" stroke="rgba(0,0,0,0.4)" stroke-width="1.2"/><path d="M 166.000 67.905 A 268 268 0 0 1 230.636 41.132 L 260.660 153.179 A 152 152 0 0 0 224.000 168.364 Z" fill="#9ca3af" stroke="rgba(0,0,0,0.4)" stroke-width="1.2"/><path d="M 230.636 41.132 A 268 268 0 0 1 300.000 32.000 L 300.000 148.000 A 152 152 0 0 0 260.660 153.179 Z" fill="#f59e0b" stroke="rgba(0,0,0,0.4)" stroke-width="1.2"/>
<line x1="300.00" y1="148.00" x2="300.00" y2="32.00" stroke="rgba(0,0,0,0.5)" stroke-width="1.5"/><line x1="339.34" y1="153.18" x2="369.36" y2="41.13" stroke="rgba(0,0,0,0.5)" stroke-width="1.5"/><line x1="376.00" y1="168.36" x2="434.00" y2="67.91" stroke="rgba(0,0,0,0.5)" stroke-width="1.5"/><line x1="407.48" y1="192.52" x2="489.50" y2="110.50" stroke="rgba(0,0,0,0.5)" stroke-width="1.5"/><line x1="431.64" y1="224.00" x2="532.09" y2="166.00" stroke="rgba(0,0,0,0.5)" stroke-width="1.5"/><line x1="446.82" y1="260.66" x2="558.87" y2="230.64" stroke="rgba(0,0,0,0.5)" stroke-width="1.5"/><line x1="452.00" y1="300.00" x2="568.00" y2="300.00" stroke="rgba(0,0,0,0.5)" stroke-width="1.5"/><line x1="446.82" y1="339.34" x2="558.87" y2="369.36" stroke="rgba(0,0,0,0.5)" stroke-width="1.5"/><line x1="431.64" y1="376.00" x2="532.09" y2="434.00" stroke="rgba(0,0,0,0.5)" stroke-width="1.5"/><line x1="407.48" y1="407.48" x2="489.50" y2="489.50" stroke="rgba(0,0,0,0.5)" stroke-width="1.5"/><line x1="376.00" y1="431.64" x2="434.00" y2="532.09" stroke="rgba(0,0,0,0.5)" stroke-width="1.5"/><line x1="339.34" y1="446.82" x2="369.36" y2="558.87" stroke="rgba(0,0,0,0.5)" stroke-width="1.5"/><line x1="300.00" y1="452.00" x2="300.00" y2="568.00" stroke="rgba(0,0,0,0.5)" stroke-width="1.5"/><line x1="260.66" y1="446.82" x2="230.64" y2="558.87" stroke="rgba(0,0,0,0.5)" stroke-width="1.5"/><line x1="224.00" y1="431.64" x2="166.00" y2="532.09" stroke="rgba(0,0,0,0.5)" stroke-width="1.5"/><line x1="192.52" y1="407.48" x2="110.50" y2="489.50" stroke="rgba(0,0,0,0.5)" stroke-width="1.5"/><line x1="168.36" y1="376.00" x2="67.91" y2="434.00" stroke="rgba(0,0,0,0.5)" stroke-width="1.5"/><line x1="153.18" y1="339.34" x2="41.13" y2="369.36" stroke="rgba(0,0,0,0.5)" stroke-width="1.5"/><line x1="148.00" y1="300.00" x2="32.00" y2="300.00" stroke="rgba(0,0,0,0.5)" stroke-width="1.5"/><line x1="153.18" y1="260.66" x2="41.13" y2="230.64" stroke="rgba(0,0,0,0.5)" stroke-width="1.5"/><line x1="168.36" y1="224.00" x2="67.91" y2="166.00" stroke="rgba(0,0,0,0.5)" stroke-width="1.5"/><line x1="192.52" y1="192.52" x2="110.50" y2="110.50" stroke="rgba(0,0,0,0.5)" stroke-width="1.5"/><line x1="224.00" y1="168.36" x2="166.00" y2="67.91" stroke="rgba(0,0,0,0.5)" stroke-width="1.5"/><line x1="260.66" y1="153.18" x2="230.64" y2="41.13" stroke="rgba(0,0,0,0.5)" stroke-width="1.5"/>

<circle cx="300" cy="300" r="151" fill="url(#bggrad)" stroke="#f5a62555" stroke-width="2"/>

<text x="327.411" y="91.797" font-family="Arial,sans-serif" font-weight="bold" font-size="11.5" fill="#000000" text-anchor="middle" dominant-baseline="middle" transform="rotate(-82.50,327.411,91.797)">ПОЛУЧКА</text><text x="380.364" y="105.985" font-family="Arial,sans-serif" font-weight="bold" font-size="11.5" fill="#000000" text-anchor="middle" dominant-baseline="middle" transform="rotate(-67.50,380.364,105.985)">ТРЕНИНГ</text><text x="427.840" y="133.396" font-family="Arial,sans-serif" font-weight="bold" font-size="11.5" fill="#000000" text-anchor="middle" dominant-baseline="middle" transform="rotate(-52.50,427.840,133.396)">РАСХОДЫ</text><text x="466.604" y="172.160" font-family="Arial,sans-serif" font-weight="bold" font-size="11.5" fill="#000000" text-anchor="middle" dominant-baseline="middle" transform="rotate(-37.50,466.604,172.160)">ДЕЛА</text><text x="494.015" y="219.636" font-family="Arial,sans-serif" font-weight="bold" font-size="11.5" fill="#000000" text-anchor="middle" dominant-baseline="middle" transform="rotate(-22.50,494.015,219.636)">ЛЮБОВЬ</text><text x="508.203" y="272.589" font-family="Arial,sans-serif" font-weight="bold" font-size="11.5" fill="#000000" text-anchor="middle" dominant-baseline="middle" transform="rotate(-7.50,508.203,272.589)">ДЕЛА</text><text x="508.203" y="327.411" font-family="Arial,sans-serif" font-weight="bold" font-size="11.5" fill="#000000" text-anchor="middle" dominant-baseline="middle" transform="rotate(7.50,508.203,327.411)">ТРЕНИНГ</text><text x="494.015" y="380.364" font-family="Arial,sans-serif" font-weight="bold" font-size="11.5" fill="#000000" text-anchor="middle" dominant-baseline="middle" transform="rotate(22.50,494.015,380.364)">ДЕЛА</text><text x="466.604" y="427.840" font-family="Arial,sans-serif" font-weight="bold" font-size="11.5" fill="#000000" text-anchor="middle" dominant-baseline="middle" transform="rotate(37.50,466.604,427.840)">РАСХОДЫ</text><text x="427.840" y="466.604" font-family="Arial,sans-serif" font-weight="bold" font-size="11.5" fill="#000000" text-anchor="middle" dominant-baseline="middle" transform="rotate(52.50,427.840,466.604)">ДЕЛА</text><text x="380.364" y="494.015" font-family="Arial,sans-serif" font-weight="bold" font-size="11.5" fill="#000000" text-anchor="middle" dominant-baseline="middle" transform="rotate(67.50,380.364,494.015)">ТРЕНИНГ</text><text x="327.411" y="508.203" font-family="Arial,sans-serif" font-weight="bold" font-size="11.5" fill="#000000" text-anchor="middle" dominant-baseline="middle" transform="rotate(82.50,327.411,508.203)">ДЕЛА</text><text x="272.589" y="508.203" font-family="Arial,sans-serif" font-weight="bold" font-size="11.5" fill="#000000" text-anchor="middle" dominant-baseline="middle" transform="rotate(277.50,272.589,508.203)">ТРЕНИНГ</text><text x="219.636" y="494.015" font-family="Arial,sans-serif" font-weight="bold" font-size="11.5" fill="#000000" text-anchor="middle" dominant-baseline="middle" transform="rotate(292.50,219.636,494.015)">ДЕЛА</text><text x="172.160" y="466.604" font-family="Arial,sans-serif" font-weight="bold" font-size="11.5" fill="#000000" text-anchor="middle" dominant-baseline="middle" transform="rotate(307.50,172.160,466.604)">ТЫ УВОЛЕН</text><text x="133.396" y="427.840" font-family="Arial,sans-serif" font-weight="bold" font-size="11.5" fill="#000000" text-anchor="middle" dominant-baseline="middle" transform="rotate(322.50,133.396,427.840)">РАСХОДЫ</text><text x="105.985" y="380.364" font-family="Arial,sans-serif" font-weight="bold" font-size="11.5" fill="#000000" text-anchor="middle" dominant-baseline="middle" transform="rotate(337.50,105.985,380.364)">ДЕЛА</text><text x="91.797" y="327.411" font-family="Arial,sans-serif" font-weight="bold" font-size="11.5" fill="#000000" text-anchor="middle" dominant-baseline="middle" transform="rotate(352.50,91.797,327.411)">ТРЕНИНГ</text><text x="91.797" y="272.589" font-family="Arial,sans-serif" font-weight="bold" font-size="11.5" fill="#000000" text-anchor="middle" dominant-baseline="middle" transform="rotate(367.50,91.797,272.589)">РАСХОДЫ</text><text x="105.985" y="219.636" font-family="Arial,sans-serif" font-weight="bold" font-size="11.5" fill="#000000" text-anchor="middle" dominant-baseline="middle" transform="rotate(382.50,105.985,219.636)">ДЕЛА</text><text x="133.396" y="172.160" font-family="Arial,sans-serif" font-weight="bold" font-size="11.5" fill="#000000" text-anchor="middle" dominant-baseline="middle" transform="rotate(397.50,133.396,172.160)">РЕБЕНОК</text><text x="172.160" y="133.396" font-family="Arial,sans-serif" font-weight="bold" font-size="11.5" fill="#000000" text-anchor="middle" dominant-baseline="middle" transform="rotate(412.50,172.160,133.396)">ДЕЛА</text><text x="219.636" y="105.985" font-family="Arial,sans-serif" font-weight="bold" font-size="11.5" fill="#000000" text-anchor="middle" dominant-baseline="middle" transform="rotate(427.50,219.636,105.985)">ТРЕНИНГ</text><text x="272.589" y="91.797" font-family="Arial,sans-serif" font-weight="bold" font-size="11.5" fill="#000000" text-anchor="middle" dominant-baseline="middle" transform="rotate(442.50,272.589,91.797)">ДЕЛА</text>

<circle cx="300" cy="300" r="269" fill="none" stroke="#f5a623" stroke-width="2.5"/>
<circle cx="300" cy="300" r="151" fill="none" stroke="#f5a62366" stroke-width="1.5"/>

<text x="300" y="288" font-family="Georgia,serif" font-weight="bold" font-size="34"
  fill="#f5a623" text-anchor="middle" dominant-baseline="middle">CashFlow</text>
<text x="300" y="320" font-family="Arial,sans-serif" font-size="12" letter-spacing="5"
  fill="#8892aa" text-anchor="middle" dominant-baseline="middle">ONLINE</text>
</svg>